<svg width="27" height="24" viewBox="0 0 27 24" fill="none" xmlns="http://www.w3.org/2000/svg">
<path d="M17.5716 17.923H3.28585V5.27147H17.5716V6.32576H20.4287V2.10859C20.4287 0.948864 19.143 0 17.5716 0H3.28585C1.71443 0 0.428711 0.948864 0.428711 2.10859V21.0859C0.428711 22.2456 1.71443 23.1945 3.28585 23.1945H17.5716C19.143 23.1945 20.4287 22.2456 20.4287 21.0859V16.8687H17.5716V17.923Z" fill="#666666"/>
<path d="M22.4001 9.08793L23.2859 10.5429L24.1716 9.08793L26.143 8.43427L24.1716 7.78061L23.2859 6.32568L22.4001 7.78061L20.4287 8.43427L22.4001 9.08793Z" fill="#666666"/>
<path d="M16.143 7.37988L14.3573 10.2792L10.4287 11.5971L14.3573 12.9149L16.143 15.8142L17.9287 12.9149L21.8573 11.5971L17.9287 10.2792L16.143 7.37988Z" fill="#666666"/>
<path d="M23.2859 12.6514L22.4001 14.1063L20.4287 14.76L22.4001 15.4136L23.2859 16.8685L24.1716 15.4136L26.143 14.76L24.1716 14.1063L23.2859 12.6514Z" fill="#666666"/>
</svg>
