<svg width="24" height="25" viewBox="0 0 24 25" fill="none" xmlns="http://www.w3.org/2000/svg">
<path d="M7.20214 24.0215C6.54195 24.0215 5.97698 23.7867 5.50724 23.3171C5.0367 22.8467 4.80143 22.2815 4.80143 21.6215C4.80143 20.9615 5.0367 20.3963 5.50724 19.9259C5.97698 19.4563 6.54195 19.2215 7.20214 19.2215C7.86234 19.2215 8.42731 19.4563 8.89705 19.9259C9.36759 20.3963 9.60286 20.9615 9.60286 21.6215C9.60286 22.2815 9.36759 22.8467 8.89705 23.3171C8.42731 23.7867 7.86234 24.0215 7.20214 24.0215ZM19.2057 24.0215C18.5455 24.0215 17.9806 23.7867 17.5108 23.3171C17.0403 22.8467 16.805 22.2815 16.805 21.6215C16.805 20.9615 17.0403 20.3963 17.5108 19.9259C17.9806 19.4563 18.5455 19.2215 19.2057 19.2215C19.8659 19.2215 20.4313 19.4563 20.9018 19.9259C21.3716 20.3963 21.6064 20.9615 21.6064 21.6215C21.6064 22.2815 21.3716 22.8467 20.9018 23.3171C20.4313 23.7867 19.8659 24.0215 19.2057 24.0215ZM7.20214 18.0215C6.30188 18.0215 5.62167 17.6263 5.16154 16.8359C4.7014 16.0463 4.68139 15.2615 5.10152 14.4815L6.722 11.5415L2.40071 2.42148H1.17035C0.830247 2.42148 0.550164 2.30628 0.330098 2.07588C0.110033 1.84628 0 1.56148 0 1.22148C0 0.881484 0.115234 0.596284 0.345703 0.365884C0.575371 0.136284 0.860256 0.0214844 1.20036 0.0214844H3.15094C3.371 0.0214844 3.58107 0.0814845 3.78113 0.201485C3.98119 0.321485 4.13123 0.491484 4.23126 0.711484L5.0415 2.42148H22.7468C23.2869 2.42148 23.657 2.62148 23.8571 3.02148C24.0572 3.42148 24.0472 3.84148 23.8271 4.28148L19.5658 11.9615C19.3458 12.3615 19.0557 12.6715 18.6956 12.8915C18.3355 13.1115 17.9253 13.2215 17.4652 13.2215H8.52254L7.20214 15.6215H20.4361C20.7762 15.6215 21.0563 15.7363 21.2763 15.9659C21.4964 16.1963 21.6064 16.4815 21.6064 16.8215C21.6064 17.1615 21.4912 17.4463 21.2607 17.6759C21.0311 17.9063 20.7462 18.0215 20.4061 18.0215H7.20214Z" fill="#CCCCCC"/>
</svg>
