<svg width="24" height="25" viewBox="0 0 24 25" fill="none" xmlns="http://www.w3.org/2000/svg">
<path d="M7.20214 24.5371C6.54195 24.5371 5.97698 24.3023 5.50724 23.8327C5.0367 23.3623 4.80143 22.7971 4.80143 22.1371C4.80143 21.4771 5.0367 20.9119 5.50724 20.4415C5.97698 19.9719 6.54195 19.7371 7.20214 19.7371C7.86234 19.7371 8.42731 19.9719 8.89705 20.4415C9.36759 20.9119 9.60286 21.4771 9.60286 22.1371C9.60286 22.7971 9.36759 23.3623 8.89705 23.8327C8.42731 24.3023 7.86234 24.5371 7.20214 24.5371ZM19.2057 24.5371C18.5455 24.5371 17.9806 24.3023 17.5108 23.8327C17.0403 23.3623 16.805 22.7971 16.805 22.1371C16.805 21.4771 17.0403 20.9119 17.5108 20.4415C17.9806 19.9719 18.5455 19.7371 19.2057 19.7371C19.8659 19.7371 20.4313 19.9719 20.9018 20.4415C21.3716 20.9119 21.6064 21.4771 21.6064 22.1371C21.6064 22.7971 21.3716 23.3623 20.9018 23.8327C20.4313 24.3023 19.8659 24.5371 19.2057 24.5371ZM7.20214 18.5371C6.30188 18.5371 5.62167 18.1419 5.16154 17.3515C4.7014 16.5619 4.68139 15.7771 5.10152 14.9971L6.722 12.0571L2.40071 2.93711H1.17035C0.830247 2.93711 0.550164 2.82191 0.330098 2.59151C0.110033 2.36191 0 2.07711 0 1.73711C0 1.39711 0.115234 1.11191 0.345703 0.881509C0.575371 0.651909 0.860256 0.537109 1.20036 0.537109H3.15094C3.371 0.537109 3.58107 0.597109 3.78113 0.71711C3.98119 0.83711 4.13123 1.00711 4.23126 1.22711L5.0415 2.93711H22.7468C23.2869 2.93711 23.657 3.13711 23.8571 3.53711C24.0572 3.93711 24.0472 4.35711 23.8271 4.79711L19.5658 12.4771C19.3458 12.8771 19.0557 13.1871 18.6956 13.4071C18.3355 13.6271 17.9253 13.7371 17.4652 13.7371H8.52254L7.20214 16.1371H20.4361C20.7762 16.1371 21.0563 16.2519 21.2763 16.4815C21.4964 16.7119 21.6064 16.9971 21.6064 17.3371C21.6064 17.6771 21.4912 17.9619 21.2607 18.1915C21.0311 18.4219 20.7462 18.5371 20.4061 18.5371H7.20214Z" fill="#CCCCCC"/>
</svg>
