<svg width="24" height="24" viewBox="0 0 24 24" fill="none" xmlns="http://www.w3.org/2000/svg">
<path d="M17.4 12C19.056 12 20.388 10.08 20.388 7.71429C20.388 5.34857 19.056 3.42857 17.4 3.42857C15.744 3.42857 14.4 5.34857 14.4 7.71429C14.4 10.08 15.744 12 17.4 12ZM8.4 10.2857C10.392 10.2857 11.988 7.98857 11.988 5.14286C11.988 2.29714 10.392 0 8.4 0C6.408 0 4.8 2.29714 4.8 5.14286C4.8 7.98857 6.408 10.2857 8.4 10.2857ZM17.4 15.4286C15.204 15.4286 10.8 17.0057 10.8 20.1429V24H24V20.1429C24 17.0057 19.596 15.4286 17.4 15.4286ZM8.4 13.7143C5.604 13.7143 0 15.72 0 19.7143V24H8.4V20.1429C8.4 18.6857 8.796 16.1314 11.244 14.1943C10.2 13.8857 9.192 13.7143 8.4 13.7143Z" fill="#CCCCCC"/>
</svg>
