<svg width="24" height="25" viewBox="0 0 24 25" fill="none" xmlns="http://www.w3.org/2000/svg">
<path d="M17.4 12.6953C19.056 12.6953 20.388 10.7753 20.388 8.40954C20.388 6.04382 19.056 4.12382 17.4 4.12382C15.744 4.12382 14.4 6.04382 14.4 8.40954C14.4 10.7753 15.744 12.6953 17.4 12.6953ZM8.4 10.981C10.392 10.981 11.988 8.68382 11.988 5.83811C11.988 2.99239 10.392 0.695251 8.4 0.695251C6.408 0.695251 4.8 2.99239 4.8 5.83811C4.8 8.68382 6.408 10.981 8.4 10.981ZM17.4 16.1238C15.204 16.1238 10.8 17.701 10.8 20.8381V24.6953H24V20.8381C24 17.701 19.596 16.1238 17.4 16.1238ZM8.4 14.4095C5.604 14.4095 0 16.4153 0 20.4095V24.6953H8.4V20.8381C8.4 19.381 8.796 16.8267 11.244 14.8895C10.2 14.581 9.192 14.4095 8.4 14.4095Z" fill="#CCCCCC"/>
</svg>
