<svg width="25" height="24" viewBox="0 0 25 24" fill="none" xmlns="http://www.w3.org/2000/svg">
<path d="M17.429 15.0943H16.3317L15.9428 14.7238C17.304 13.1595 18.1235 11.1286 18.1235 8.91938C18.1235 3.99314 14.0815 0 9.09497 0C4.10843 0 0.0664062 3.99314 0.0664062 8.91938C0.0664062 13.8456 4.10843 17.8388 9.09497 17.8388C11.3313 17.8388 13.387 17.0292 14.9705 15.6844L15.3455 16.0686V17.1527L22.2906 24L24.3602 21.9554L17.429 15.0943ZM9.09497 15.0943C5.63634 15.0943 2.84443 12.3362 2.84443 8.91938C2.84443 5.50257 5.63634 2.74443 9.09497 2.74443C12.5536 2.74443 15.3455 5.50257 15.3455 8.91938C15.3455 12.3362 12.5536 15.0943 9.09497 15.0943Z" fill="#CCCCCC"/>
</svg>
