<svg width="13" height="18" viewBox="0 0 13 18" fill="none" xmlns="http://www.w3.org/2000/svg">
<path d="M9.21875 11H8.63613L8.42963 10.73C9.15238 9.59 9.5875 8.11 9.5875 6.5C9.5875 2.91 7.44138 0 4.79375 0C2.14613 0 0 2.91 0 6.5C0 10.09 2.14613 13 4.79375 13C5.98112 13 7.07262 12.41 7.91337 11.43L8.1125 11.71V12.5L11.8 17.49L12.8989 16L9.21875 11ZM4.79375 11C2.95738 11 1.475 8.99 1.475 6.5C1.475 4.01 2.95738 2 4.79375 2C6.63013 2 8.1125 4.01 8.1125 6.5C8.1125 8.99 6.63013 11 4.79375 11Z" fill="#CCCCCC"/>
</svg>
