<svg width="24" height="25" viewBox="0 0 24 25" fill="none" xmlns="http://www.w3.org/2000/svg">
<path d="M7.20214 24.6953C6.54195 24.6953 5.97698 24.4605 5.50724 23.9909C5.0367 23.5205 4.80143 22.9553 4.80143 22.2953C4.80143 21.6353 5.0367 21.0701 5.50724 20.5997C5.97698 20.1301 6.54195 19.8953 7.20214 19.8953C7.86234 19.8953 8.42731 20.1301 8.89705 20.5997C9.36759 21.0701 9.60286 21.6353 9.60286 22.2953C9.60286 22.9553 9.36759 23.5205 8.89705 23.9909C8.42731 24.4605 7.86234 24.6953 7.20214 24.6953ZM19.2057 24.6953C18.5455 24.6953 17.9806 24.4605 17.5108 23.9909C17.0403 23.5205 16.805 22.9553 16.805 22.2953C16.805 21.6353 17.0403 21.0701 17.5108 20.5997C17.9806 20.1301 18.5455 19.8953 19.2057 19.8953C19.8659 19.8953 20.4313 20.1301 20.9018 20.5997C21.3716 21.0701 21.6064 21.6353 21.6064 22.2953C21.6064 22.9553 21.3716 23.5205 20.9018 23.9909C20.4313 24.4605 19.8659 24.6953 19.2057 24.6953ZM7.20214 18.6953C6.30188 18.6953 5.62167 18.3001 5.16154 17.5097C4.7014 16.7201 4.68139 15.9353 5.10152 15.1553L6.722 12.2153L2.40071 3.09525H1.17035C0.830247 3.09525 0.550164 2.98005 0.330098 2.74965C0.110033 2.52005 0 2.23525 0 1.89525C0 1.55525 0.115234 1.27005 0.345703 1.03965C0.575371 0.810051 0.860256 0.695251 1.20036 0.695251H3.15094C3.371 0.695251 3.58107 0.755252 3.78113 0.875252C3.98119 0.995252 4.13123 1.16525 4.23126 1.38525L5.0415 3.09525H22.7468C23.2869 3.09525 23.657 3.29525 23.8571 3.69525C24.0572 4.09525 24.0472 4.51525 23.8271 4.95525L19.5658 12.6353C19.3458 13.0353 19.0557 13.3453 18.6956 13.5653C18.3355 13.7853 17.9253 13.8953 17.4652 13.8953H8.52254L7.20214 16.2953H20.4361C20.7762 16.2953 21.0563 16.4101 21.2763 16.6397C21.4964 16.8701 21.6064 17.1553 21.6064 17.4953C21.6064 17.8353 21.4912 18.1201 21.2607 18.3497C21.0311 18.5801 20.7462 18.6953 20.4061 18.6953H7.20214Z" fill="#CCCCCC"></path>
</svg>
