<svg width="24" height="22" viewBox="0 0 24 22" fill="none" xmlns="http://www.w3.org/2000/svg">
<path d="M17.4 10.8637C19.056 10.8637 20.388 9.21141 20.388 7.17561C20.388 5.1398 19.056 3.48755 17.4 3.48755C15.744 3.48755 14.4 5.1398 14.4 7.17561C14.4 9.21141 15.744 10.8637 17.4 10.8637ZM8.4 9.38844C10.392 9.38844 11.988 7.41164 11.988 4.96277C11.988 2.51391 10.392 0.537109 8.4 0.537109C6.408 0.537109 4.8 2.51391 4.8 4.96277C4.8 7.41164 6.408 9.38844 8.4 9.38844ZM17.4 13.8141C15.204 13.8141 10.8 15.1713 10.8 17.871V21.1902H24V17.871C24 15.1713 19.596 13.8141 17.4 13.8141ZM8.4 12.3389C5.604 12.3389 0 14.0649 0 17.5022V21.1902H8.4V17.871C8.4 16.617 8.796 14.4189 11.244 12.7519C10.2 12.4864 9.192 12.3389 8.4 12.3389Z" fill="#CCCCCC"></path>
</svg>
