<svg width="24" height="24" viewBox="0 0 24 24" fill="none" xmlns="http://www.w3.org/2000/svg">
<path d="M7.20214 24C6.54195 24 5.97698 23.7652 5.50724 23.2956C5.0367 22.8252 4.80143 22.26 4.80143 21.6C4.80143 20.94 5.0367 20.3748 5.50724 19.9044C5.97698 19.4348 6.54195 19.2 7.20214 19.2C7.86234 19.2 8.42731 19.4348 8.89705 19.9044C9.36759 20.3748 9.60286 20.94 9.60286 21.6C9.60286 22.26 9.36759 22.8252 8.89705 23.2956C8.42731 23.7652 7.86234 24 7.20214 24ZM19.2057 24C18.5455 24 17.9806 23.7652 17.5108 23.2956C17.0403 22.8252 16.805 22.26 16.805 21.6C16.805 20.94 17.0403 20.3748 17.5108 19.9044C17.9806 19.4348 18.5455 19.2 19.2057 19.2C19.8659 19.2 20.4313 19.4348 20.9018 19.9044C21.3716 20.3748 21.6064 20.94 21.6064 21.6C21.6064 22.26 21.3716 22.8252 20.9018 23.2956C20.4313 23.7652 19.8659 24 19.2057 24ZM7.20214 18C6.30188 18 5.62167 17.6048 5.16154 16.8144C4.7014 16.0248 4.68139 15.24 5.10152 14.46L6.722 11.52L2.40071 2.4H1.17035C0.830247 2.4 0.550164 2.2848 0.330098 2.0544C0.110033 1.8248 0 1.54 0 1.2C0 0.86 0.115234 0.5748 0.345703 0.3444C0.575371 0.1148 0.860256 0 1.20036 0H3.15094C3.371 0 3.58107 0.0600001 3.78113 0.18C3.98119 0.3 4.13123 0.47 4.23126 0.69L5.0415 2.4H22.7468C23.2869 2.4 23.657 2.6 23.8571 3C24.0572 3.4 24.0472 3.82 23.8271 4.26L19.5658 11.94C19.3458 12.34 19.0557 12.65 18.6956 12.87C18.3355 13.09 17.9253 13.2 17.4652 13.2H8.52254L7.20214 15.6H20.4361C20.7762 15.6 21.0563 15.7148 21.2763 15.9444C21.4964 16.1748 21.6064 16.46 21.6064 16.8C21.6064 17.14 21.4912 17.4248 21.2607 17.6544C21.0311 17.8848 20.7462 18 20.4061 18H7.20214Z" fill="#CCCCCC"></path>
</svg>
