<svg width="24" height="25" viewBox="0 0 24 25" fill="none" xmlns="http://www.w3.org/2000/svg">
<path d="M17.4 12.5371C19.056 12.5371 20.388 10.6171 20.388 8.2514C20.388 5.88568 19.056 3.96568 17.4 3.96568C15.744 3.96568 14.4 5.88568 14.4 8.2514C14.4 10.6171 15.744 12.5371 17.4 12.5371ZM8.4 10.8228C10.392 10.8228 11.988 8.52568 11.988 5.67997C11.988 2.83425 10.392 0.537109 8.4 0.537109C6.408 0.537109 4.8 2.83425 4.8 5.67997C4.8 8.52568 6.408 10.8228 8.4 10.8228ZM17.4 15.9657C15.204 15.9657 10.8 17.5428 10.8 20.68V24.5371H24V20.68C24 17.5428 19.596 15.9657 17.4 15.9657ZM8.4 14.2514C5.604 14.2514 0 16.2571 0 20.2514V24.5371H8.4V20.68C8.4 19.2228 8.796 16.6685 11.244 14.7314C10.2 14.4228 9.192 14.2514 8.4 14.2514Z" fill="#CCCCCC"></path>
</svg>
