<svg width="14" height="18" viewBox="0 0 14 18" fill="none" xmlns="http://www.w3.org/2000/svg">
<path d="M9.55702 11H8.96397L8.75378 10.73C9.48946 9.59 9.93237 8.11 9.93237 6.5C9.93237 2.91 7.74785 0 5.05285 0C2.35786 0 0.17334 2.91 0.17334 6.5C0.17334 10.09 2.35786 13 5.05285 13C6.26147 13 7.3725 12.41 8.22829 11.43L8.43098 11.71V12.5L12.1845 17.49L13.303 16L9.55702 11ZM5.05285 11C3.18362 11 1.67473 8.99 1.67473 6.5C1.67473 4.01 3.18362 2 5.05285 2C6.92208 2 8.43098 4.01 8.43098 6.5C8.43098 8.99 6.92208 11 5.05285 11Z" fill="#CCCCCC"></path>
</svg>
